M48
; DRILL file KiCad 10.0.5 date 2026-09-03T06:25:08
; FORMAT={-:-/ absolute / metric / decimal}
; #@! TF.CreationDate,2026-09-03T06:25:08+07:00
; #@! TF.GenerationSoftware,Kicad,Pcbnew,10.0.5
; #@! TF.FileFunction,Plated,1,2,PTH
FMAT,2
METRIC
; #@! TA.AperFunction,Plated,PTH,ComponentDrill
T1C0.200
; #@! TA.AperFunction,Plated,PTH,ViaDrill
T2C0.300
; #@! TA.AperFunction,Plated,PTH,ComponentDrill
T3C0.800
; #@! TA.AperFunction,Plated,PTH,ComponentDrill
T4C0.900
%
G90
G05
T1
X105.165Y-77.082
X105.165Y-78.917
X106.082Y-76.165
X106.082Y-78.0
X106.082Y-79.835
X107.0Y-77.082
X107.0Y-78.917
X107.917Y-76.165
X107.917Y-78.0
X107.917Y-79.835
X108.835Y-77.082
X108.835Y-78.917
T2
X68.5Y-68.5
X89.576Y-92.076
X90.0Y-70.5
X100.5Y-89.0
X113.5Y-77.5
T3
X45.0Y-81.5
X47.5Y-67.5
X47.5Y-72.5
X48.0Y-81.5
X57.0Y-81.69
X57.0Y-89.31
X58.38Y-64.88
X58.38Y-67.42
X58.38Y-69.96
X58.38Y-72.5
X65.5Y-89.19
X65.5Y-96.81
X66.0Y-64.88
X66.0Y-67.42
X66.0Y-69.96
X66.0Y-72.5
X74.5Y-64.88
X74.5Y-72.5
X82.19Y-65.0
X82.19Y-72.5
X82.19Y-78.5
X82.38Y-85.0
X89.81Y-65.0
X89.81Y-72.5
X89.81Y-78.5
X90.0Y-85.0
T4
X84.96Y-95.0
X87.5Y-95.0
M30
